<svg width="24" height="24" viewBox="0 0 24 24" fill="none" xmlns="http://www.w3.org/2000/svg">
<path d="M18.9185 10.0893C18.6936 9.53569 18.4687 8.99936 18.2438 8.46016L18.8464 6.50516L17.4941 5.15282L15.5391 5.75546C14.9768 5.51902 14.4953 5.31718 13.9099 5.08073L12.9555 3.17188H11.0437L10.0893 5.08073C9.50397 5.31718 9.02243 5.51902 8.46016 5.75546L6.50516 5.15282L5.15282 6.50516L5.75546 8.46016C5.53055 8.99648 5.30564 9.53569 5.08073 10.0893L3.17188 11.0437V12.9555L5.08073 13.9099C5.28546 14.4808 5.52767 15.0143 5.75546 15.5391L5.15282 17.4941L6.50516 18.8464L8.46016 18.2438C8.97918 18.4889 9.52704 18.6994 10.0893 18.9185L11.0437 20.8274H12.9555L13.9099 18.9185C14.4693 18.6994 15.0172 18.4889 15.5391 18.2438L17.4941 18.8464L18.8464 17.4941L18.2438 15.5391C18.4716 15.0172 18.7138 14.4808 18.9185 13.9099L20.8274 12.9555V11.0437L18.9185 10.0893Z" stroke="#A9AFB8" stroke-width="1.75" stroke-miterlimit="10"/>
<path d="M13.2241 9.04688H10.7761L9.04395 10.779V13.227L10.7761 14.9591H13.2241L14.9562 13.227V10.779L13.2241 9.04688Z" stroke="#A9AFB8" stroke-width="1.75" stroke-miterlimit="10"/>
</svg>
